<svg xmlns="http://www.w3.org/2000/svg" xmlns:xlink="http://www.w3.org/1999/xlink" viewBox="0 0 17600 5000" version="1.1"><path stroke="none" fill="#000000" d="M0,3926L317,3545C537,3727 768,3842 1047,3842C1267,3842 1399,3755 1399,3612L1399,3605C1399,3468 1316,3398 907,3293C415,3167 097,3031 097,2545L097,2538C097,2093 453,1800 953,1800C1309,1800 1612,1911 1860,2111L1581,2517C1365,2366 1152,2275 946,2275C740,2275 631,2370 631,2489L631,2496C631,2657 736,2709 1159,2817C1654,2947 1934,3125 1934,3552L1934,3559C1934,4045 1564,4318 1036,4318C666,4318 293,4189 0,3926M2180,3320L2180,3313C2180,2778 2588,2337 3161,2337C3514,2337 3733,2456 3908,2652L3583,3002C3465,2876 3346,2795 3157,2795C2892,2795 2704,3030 2704,3306L2704,3313C2704,3600 2889,3831 3178,3831C3356,3831 3479,3754 3608,3632L3919,3946C3737,4146 3528,4289 3154,4289C2592,4289 2180,3855 2180,3320M5524,3320L5524,3313C5524,3037 5325,2795 5031,2795C4728,2795 4546,3030 4546,3306L4546,3313C4546,3590 4745,3831 5038,3831C5342,3831 5524,3597 5524,3320M4022,3320L4022,3313C4022,2774 4455,2337 5038,2337C5618,2337 6047,2767 6047,3306L6047,3313C6047,3852 5614,4289 5031,4289C4452,4289 4022,3859 4022,3320M6254,3586L6254,2372L6785,2372L6785,3418C6785,3670 6904,3799 7106,3799C7309,3799 7438,3670 7438,3418L7438,2372L7969,2372L7969,4247L7438,4247L7438,3981C7316,4139 7159,4282 6890,4282C6488,4282 6254,4016 6254,3586M8277,3716L8277,1893L8807,1893L8807,2372L9248,2372L9248,2827L8807,2827L8807,3628C8807,3751 8860,3810 8979,3810C9076,3810 9164,3785 9240,3743L9240,4170C9129,4237 9000,4279 8821,4279C8497,4279 8277,4149 8277,3716M9481,3999L9708,3649C9911,3796 10124,3873 10298,3873C10452,3873 10522,3817 10522,3733L10522,3726C10522,3610 10340,3572 10134,3509C9872,3432 9575,3310 9575,2946L9575,2939C9575,2558 9883,2344 10260,2344C10497,2344 10755,2425 10958,2561L10755,2928C10570,2820 10385,2753 10249,2753C10120,2753 10054,2809 10054,2883L10054,2890C10054,2995 10232,3044 10434,3114C10696,3201 11000,3327 11000,3670L11000,3677C11000,4093 10689,4282 10284,4282C10022,4282 9729,4195 9481,3999M13571,2255C13723,2487 13799,2754 13823,2934L14099,2934C14076,2713 13987,2390 13801,2105C13580,1765 13292,1585 12969,1585L12967,1585C12720,1585 12489,1696 12333,1890C12169,2094 12107,2357 12162,2613L12431,2554C12393,2383 12436,2199 12546,2063C12652,1932 12801,1860 12967,1860L12968,1860C13254,1860 13454,2075 13571,2255M15567,4182C15459,4033 15381,3855 15346,3683L15067,3683C15089,3817 15146,4038 15295,4272C15202,4429 15033,4585 14855,4677C14855,4677 14855,4677 14855,4677C14855,4677 14855,4677 14854,4677C14676,4585 14508,4429 14414,4272C14564,4038 14621,3817 14642,3683L14363,3683C14329,3855 14250,4033 14143,4182L14096,4247L14129,4320C14246,4575 14515,4830 14799,4956L14854,4980L14855,4980L14855,4980L14910,4956C15194,4830 15463,4575 15580,4320L15613,4247L15567,4182 ZM16138,2255C15987,2487 15910,2754 15887,2934L15610,2934C15633,2713 15722,2390 15908,2105C16129,1765 16417,1585 16741,1585L16743,1585C16990,1585 17221,1696 17377,1890C17541,2094 17603,2357 17547,2613L17279,2554C17316,2383 17273,2199 17163,2063C17058,1932 16909,1860 16743,1860L16741,1860C16455,1860 16255,2075 16138,2255M14375,2934L14651,2934C14617,2615 14492,2337 14381,2091C14271,1845 14166,1613 14168,1381C14170,1115 14321,844 14573,655C14617,622 14742,526 14855,422C14967,526 15093,622 15137,655C15388,844 15539,1115 15542,1381C15543,1613 15439,1845 15328,2091C15217,2337 15093,2615 15058,2934L15334,2934C15369,2671 15475,2433 15579,2204C15702,1930 15818,1671 15816,1379C15813,1027 15621,675 15301,435C15264,407 15068,257 14955,136L14855,027L14754,136C14642,257 14446,407 14408,435C14089,675 13896,1027 13893,1379C13891,1671 14008,1930 14131,2204C14234,2433 14341,2671 14375,2934M13287,3440L16423,3440L16423,3177L13287,3177Z" /></svg>
