<svg role="img" focusable="false" version="1.1" viewBox="0 0 17600 5000" aria-labelledby="tt tt" xmlns="http://www.w3.org/2000/svg"><title id="tt">The Scouts</title><path d="m0 3926 317-381c220 182 451 297 730 297 220 0 352-87 352-230v-7c0-137-83-207-492-312-492-126-810-262-810-748v-7c0-445 356-738 856-738 356 0 659 111 907 311l-279 406c-216-151-429-242-635-242s-315 95-315 214v7c0 161 105 213 528 321 495 130 775 308 775 735v7c0 486-370 759-898 759-370 0-743-129-1036-392m2180-606v-7c0-535 408-976 981-976 353 0 572 119 747 315l-325 350c-118-126-237-207-426-207-265 0-453 235-453 511v7c0 287 185 518 474 518 178 0 301-77 430-199l311 314c-182 200-391 343-765 343-562 0-974-434-974-969m3344 0v-7c0-276-199-518-493-518-303 0-485 235-485 511v7c0 277 199 518 492 518 304 0 486-234 486-511m-1502 0v-7c0-539 433-976 1016-976 580 0 1009 430 1009 969v7c0 539-433 976-1016 976-579 0-1009-430-1009-969m2232 266v-1214h531v1046c0 252 119 381 321 381 203 0 332-129 332-381v-1046h531v1875h-531v-266c-122 158-279 301-548 301-402 0-636-266-636-696m2023 130v-1823h530v479h441v455h-441v801c0 123 53 182 172 182 97 0 185-25 261-67v427c-111 67-240 109-419 109-324 0-544-130-544-563m1204 283 227-350c203 147 416 224 590 224 154 0 224-56 224-140v-7c0-116-182-154-388-217-262-77-559-199-559-563v-7c0-381 308-595 685-595 237 0 495 81 698 217l-203 367c-185-108-370-175-506-175-129 0-195 56-195 130v7c0 105 178 154 380 224 262 87 566 213 566 556v7c0 416-311 605-716 605-262 0-555-87-803-283m4090-1744c152 232 228 499 252 679h276c-23-221-112-544-298-829-221-340-509-520-832-520h-2c-247 0-478 111-634 305-164 204-226 467-171 723l269-59c-38-171 5-355 115-491 106-131 255-203 421-203h1c286 0 486 215 603 395m1996 1927c-108-149-186-327-221-499h-279c22 134 79 355 228 589-93 157-262 313-440 405h-1c-178-92-346-248-440-405 150-234 207-455 228-589h-279c-34 172-113 350-220 499l-47 65 33 73c117 255 386 510 670 636l55 24h1l55-24c284-126 553-381 670-636l33-73-46-65zm571-1927c-151 232-228 499-251 679h-277c23-221 112-544 298-829 221-340 509-520 833-520h2c247 0 478 111 634 305 164 204 226 467 170 723l-268-59c37-171-6-355-116-491-105-131-254-203-420-203h-2c-286 0-486 215-603 395m-1763 679h276c-34-319-159-597-270-843-110-246-215-478-213-710 2-266 153-537 405-726 44-33 169-129 282-233 112 104 238 200 282 233 251 189 402 460 405 726 1 232-103 464-214 710s-235 524-270 843h276c35-263 141-501 245-730 123-274 239-533 237-825-3-352-195-704-515-944-37-28-233-178-346-299l-100-109-101 109c-112 121-308 271-346 299-319 240-512 592-515 944-2 292 115 551 238 825 103 229 210 467 244 730m-1088 506h3136v-263h-3136z"/></svg>
